<svg version="1.1" id="Layer_1" xmlns="http://www.w3.org/2000/svg" xmlns:xlink="http://www.w3.org/1999/xlink" x="0px" y="0px"
	 width="100%" viewBox="0 0 481 481" enable-background="new 0 0 481 481" xml:space="preserve">
<path fill="#000000" opacity="1.000000" stroke="none" 
	d="
M335.000000,482.000000 
	C223.333328,482.000000 112.166664,482.000000 1.000000,482.000000 
	C1.000000,321.666656 1.000000,161.333328 1.000000,1.000000 
	C161.333328,1.000000 321.666656,1.000000 482.000000,1.000000 
	C482.000000,161.333328 482.000000,321.666656 482.000000,482.000000 
	C433.166656,482.000000 384.333344,482.000000 335.000000,482.000000 
M15.059659,374.779114 
	C14.701346,376.336884 14.343034,377.894623 13.859522,379.996704 
	C17.987635,379.996704 21.793125,380.218140 25.545372,379.868347 
	C26.747473,379.756317 28.387079,378.355682 28.843481,377.167114 
	C32.675743,367.187103 36.294399,357.124786 39.948879,347.076843 
	C53.290569,310.394226 66.676437,273.727509 79.939308,237.016388 
	C91.384842,205.335602 102.670456,173.597046 114.072235,141.900391 
	C115.325523,138.416290 116.878304,135.039902 118.448990,131.233566 
	C147.107101,210.044662 175.543060,288.244843 204.232391,367.141846 
	C153.862900,367.141846 104.007629,367.141846 54.237896,367.141846 
	C54.237896,371.689362 54.237896,375.633850 54.237896,379.783539 
	C110.551468,379.783539 166.627167,379.783539 223.155838,379.783539 
	C188.348068,284.046997 153.653046,188.620651 118.639969,92.319466 
	C117.396004,94.478806 116.569153,95.526825 116.138710,96.718094 
	C106.227959,124.146721 96.410027,151.608948 86.472504,179.027832 
	C73.162476,215.751831 59.772686,252.446945 46.404587,289.149872 
	C36.095715,317.453522 25.767527,345.750122 15.059659,374.779114 
M400.499969,145.000000 
	C417.460785,128.035172 434.421600,111.070358 451.382385,94.105537 
	C445.197845,93.002167 439.741333,92.881493 434.297607,93.091850 
	C433.026978,93.140953 431.542114,94.055687 430.589722,95.006699 
	C385.429688,140.101364 340.317505,185.243973 294.804504,230.776718 
	C310.221558,245.700684 325.766479,260.425507 340.950989,275.513062 
	C374.876678,309.222229 408.613037,343.121887 442.477936,376.892395 
	C443.788971,378.199738 445.577332,379.740662 447.235443,379.856750 
	C452.617401,380.233673 458.042297,379.997650 464.863159,379.997650 
	C414.215790,329.351318 364.567688,279.704193 314.448578,229.586105 
	C343.074493,201.450485 371.537231,173.475266 400.499969,145.000000 
M270.000000,326.500000 
	C270.000000,344.248627 270.000000,361.997253 270.000000,379.638092 
	C274.705688,379.638092 278.762848,379.638092 282.679199,379.638092 
	C282.679199,283.937622 282.679199,188.599365 282.679199,93.361786 
	C278.294556,93.361786 274.237427,93.361786 270.000000,93.361786 
	C270.000000,170.982269 270.000000,248.241135 270.000000,326.500000 
z"/>
<path fill="#957EDD" opacity="1.000000" stroke="none" 
	d="
M15.253788,374.414490 
	C25.767527,345.750122 36.095715,317.453522 46.404587,289.149872 
	C59.772686,252.446945 73.162476,215.751831 86.472504,179.027832 
	C96.410027,151.608948 106.227959,124.146721 116.138710,96.718094 
	C116.569153,95.526825 117.396004,94.478806 118.639969,92.319466 
	C153.653046,188.620651 188.348068,284.046997 223.155838,379.783539 
	C166.627167,379.783539 110.551468,379.783539 54.237896,379.783539 
	C54.237896,375.633850 54.237896,371.689362 54.237896,367.141846 
	C104.007629,367.141846 153.862900,367.141846 204.232391,367.141846 
	C175.543060,288.244843 147.107101,210.044662 118.448990,131.233566 
	C116.878304,135.039902 115.325523,138.416290 114.072235,141.900391 
	C102.670456,173.597046 91.384842,205.335602 79.939308,237.016388 
	C66.676437,273.727509 53.290569,310.394226 39.948879,347.076843 
	C36.294399,357.124786 32.675743,367.187103 28.843481,377.167114 
	C28.387079,378.355682 26.747473,379.756317 25.545372,379.868347 
	C21.793125,380.218140 17.987635,379.996704 13.859522,379.996704 
	C14.343034,377.894623 14.701346,376.336884 15.253788,374.414490 
z"/>
<path fill="#957EDD" opacity="1.000000" stroke="none" 
	d="
M400.249969,145.250031 
	C371.537231,173.475266 343.074493,201.450485 314.448578,229.586105 
	C364.567688,279.704193 414.215790,329.351318 464.863159,379.997650 
	C458.042297,379.997650 452.617401,380.233673 447.235443,379.856750 
	C445.577332,379.740662 443.788971,378.199738 442.477936,376.892395 
	C408.613037,343.121887 374.876678,309.222229 340.950989,275.513062 
	C325.766479,260.425507 310.221558,245.700684 294.804504,230.776718 
	C340.317505,185.243973 385.429688,140.101364 430.589722,95.006699 
	C431.542114,94.055687 433.026978,93.140953 434.297607,93.091850 
	C439.741333,92.881493 445.197845,93.002167 451.382385,94.105537 
	C434.421600,111.070358 417.460785,128.035172 400.249969,145.250031 
z"/>
<path fill="#957EDD" opacity="1.000000" stroke="none" 
	d="
M270.000000,326.000000 
	C270.000000,248.241135 270.000000,170.982269 270.000000,93.361786 
	C274.237427,93.361786 278.294556,93.361786 282.679199,93.361786 
	C282.679199,188.599365 282.679199,283.937622 282.679199,379.638092 
	C278.762848,379.638092 274.705688,379.638092 270.000000,379.638092 
	C270.000000,361.997253 270.000000,344.248627 270.000000,326.000000 
z"/>
</svg>